<svg xmlns="http://www.w3.org/2000/svg" xmlns:xlink="http://www.w3.org/1999/xlink" version="1.1" id="v-2"><rect id="svg-background" width="100%" height="100%" fill="#F5F6F6"></rect><g id="v-3" class="viewport" transform="translate(-90 -141) scale(1 1)"><g id="j_2068" model-id="c0617057-2960-46e1-8304-3a34ddd08046" class="link joint-theme-default"><path class="connection" stroke="#d2d2dc" d="M 331 730 360 730 S 370 730 370 720 L 370 340 S 370 330 376 330 L 382 330" id="v-26896" stroke-width="1" fill="none"></path><path class="marker-source" fill="white" stroke="#d2d2dc" d="M -5 0 L 5 5 M -5 5 L 5 5 M -5 10 L 5 5 M 5 5" id="v-26897" stroke-width="1" transform="translate(326,725) scale(1,1) rotate(0)"></path><path class="marker-target" fill="white" stroke="#d2d2dc" d="M 6 0 L 6 10 M 6 5 L 0 5 z" id="v-26898" stroke-width="1" transform="translate(388,335) scale(1,1) rotate(-180)"></path><g class="labels" id="v-26900"></g></g><g id="j_2067" model-id="85beee20-5493-4c32-be57-d040da4a5080" class="link joint-theme-default"><path class="connection" stroke="#d2d2dc" d="M 331 684 392 684" id="v-26884" stroke-width="1" fill="none"></path><path class="marker-source" fill="white" stroke="#d2d2dc" d="M -5 0 L 5 5 M -5 5 L 5 5 M -5 10 L 5 5 M 5 5" id="v-26885" stroke-width="1" transform="translate(326,679) scale(1,1) rotate(0)"></path><path class="marker-target" fill="white" stroke="#d2d2dc" d="M 6 0 L 6 10 M 6 5 L 0 5 z" id="v-26886" stroke-width="1" transform="translate(398,689) scale(1,1) rotate(-180)"></path><g class="labels" id="v-26888"></g></g><g id="j_2066" model-id="7dc48d3d-a715-4f6a-9850-d7862d47ca69" class="link joint-theme-default"><path class="connection" stroke="#d2d2dc" d="M 636 490 670 490 S 680 490 680 480 L 680 480 S 680 470 687 469 L 694 467" id="v-26872" stroke-width="1" fill="none"></path><path class="marker-source" fill="white" stroke="#d2d2dc" d="M -5 0 L 5 5 M -5 5 L 5 5 M -5 10 L 5 5 M 5 5" id="v-26873" stroke-width="1" transform="translate(631,485) scale(1,1) rotate(0)"></path><path class="marker-target" fill="white" stroke="#d2d2dc" d="M 6 0 L 6 10 M 6 5 L 0 5 z" id="v-26874" stroke-width="1" transform="translate(700.9805505467602,470.90290308449914) scale(1,1) rotate(-191.3099365234375)"></path><g class="labels" id="v-26876"></g></g><g id="j_2065" model-id="a53fa98b-767e-4ebe-ba2d-894f5bc28ca3" class="link joint-theme-default"><path class="connection" stroke="#d2d2dc" d="M 110 500 105 500 S 100 500 100 510 L 100 750 S 100 760 110 759 L 120 758" id="v-26860" stroke-width="1" fill="none"></path><path class="marker-source" fill="white" stroke="#d2d2dc" d="M -5 0 L 5 5 M -5 5 L 5 5 M -5 10 L 5 5 M 5 5" id="v-26861" stroke-width="1" transform="translate(115,505) scale(1,1) rotate(-180)"></path><path class="marker-target" fill="white" stroke="#d2d2dc" d="M 6 0 L 6 10 M 6 5 L 0 5 z" id="v-26862" stroke-width="1" transform="translate(126.57312233811217,761.9670447331906) scale(1,1) rotate(-186.58193969726562)"></path><g class="labels" id="v-26864"></g></g><g id="j_2064" model-id="5772965f-fa14-4ad2-9881-c46a62571adb" class="link joint-theme-default"><path class="connection" stroke="#d2d2dc" d="M 247 468 386 468" id="v-26848" stroke-width="1" fill="none"></path><path class="marker-source" fill="white" stroke="#d2d2dc" d="M -5 0 L 5 5 M -5 5 L 5 5 M -5 10 L 5 5 M 5 5" id="v-26849" stroke-width="1" transform="translate(242,463) scale(1,1) rotate(0)"></path><path class="marker-target" fill="white" stroke="#d2d2dc" d="M 6 0 L 6 10 M 6 5 L 0 5 z" id="v-26850" stroke-width="1" transform="translate(392,473) scale(1,1) rotate(-180)"></path><g class="labels" id="v-26852"></g></g><g id="j_2063" model-id="7ecdb53c-3d97-4b22-a995-a900d4ba8f64" class="link joint-theme-default"><path class="connection" stroke="#d2d2dc" d="M 247 450 360 450 S 370 450 370 440 L 370 340 S 370 330 376 330 L 382 330" id="v-26836" stroke-width="1" fill="none"></path><path class="marker-source" fill="white" stroke="#d2d2dc" d="M -5 0 L 5 5 M -5 5 L 5 5 M -5 10 L 5 5 M 5 5" id="v-26837" stroke-width="1" transform="translate(242,445) scale(1,1) rotate(0)"></path><path class="marker-target" fill="white" stroke="#d2d2dc" d="M 6 0 L 6 10 M 6 5 L 0 5 z" id="v-26838" stroke-width="1" transform="translate(388,335) scale(1,1) rotate(-180)"></path><g class="labels" id="v-26840"></g></g><g id="j_2022" model-id="7cf88c82-a3a2-4217-9ed7-1df951282d01" class="element basic newt joint-theme-default" magnet="false" fill="#ffffff" stroke="none" transform="translate(388,171)" font-family="Roboto,'Helvetica Neue', sans-serif"><g class="joint-table" onmousedown="QdbdJS.onTableMouseDown(this)" onmouseup="QdbdJS.onTableMouseUp(this)" id="v-26316">
          <rect x="0" y="0" width="261" height="38" class="joint-table-title" onmousedown="QdbdJS.onRowMouseDown()" onmousemove="QdbdJS.onRowMouseMove()" onmouseup="QdbdJS.onRowMouseUp(11)" fill="#005aa0" stroke="#005aa0"></rect>
          <text x="14" y="24" text-anchor="start" class="joint-table-title-text" id="v-26327" pointer-events="none" font-size="14px">/users/&lt;UID&gt;/</text>
          <g class="joint-table-rows">
            
        <g class="joint-table-row-group" onmousedown="QdbdJS.onRowMouseDown()" onmousemove="QdbdJS.onRowMouseMove()" onmouseup="QdbdJS.onRowMouseUp(13)">
          <rect x="0" y="38" class="joint-table-row" width="261" height="25" stroke="none"></rect>
          
          
          <text x="0" y="60" class="joint-field-text" id="v-26328" pointer-events="none" fill="#333" font-size="12px">
            <tspan x="14" y="60" text-anchor="start" class="joint-field-name ">
              createdLists
            </tspan>
            <tspan x="247" y="60" text-anchor="end" class="joint-field-type" fill="#adb1b5">
              List
            </tspan>
          </text>
          
          
        </g>
        <g class="joint-table-row-group" onmousedown="QdbdJS.onRowMouseDown()" onmousemove="QdbdJS.onRowMouseMove()" onmouseup="QdbdJS.onRowMouseUp(14)">
          <rect x="0" y="63" class="joint-table-row" width="261" height="25" stroke="none"></rect>
          
          
          <text x="0" y="85" class="joint-field-text" id="v-26329" pointer-events="none" fill="#333" font-size="12px">
            <tspan x="14" y="85" text-anchor="start" class="joint-field-name ">
              collaboratingLists
            </tspan>
            <tspan x="247" y="85" text-anchor="end" class="joint-field-type" fill="#adb1b5">
              List
            </tspan>
          </text>
          
          
        </g>
        <g class="joint-table-row-group" onmousedown="QdbdJS.onRowMouseDown()" onmousemove="QdbdJS.onRowMouseMove()" onmouseup="QdbdJS.onRowMouseUp(15)">
          <rect x="0" y="88" class="joint-table-row" width="261" height="25" stroke="none"></rect>
          
          
          <text x="0" y="110" class="joint-field-text" id="v-26330" pointer-events="none" fill="#333" font-size="12px">
            <tspan x="14" y="110" text-anchor="start" class="joint-field-name ">
              archiveList
            </tspan>
            <tspan x="247" y="110" text-anchor="end" class="joint-field-type" fill="#adb1b5">
              int
            </tspan>
          </text>
          
          
        </g>
        <g class="joint-table-row-group" onmousedown="QdbdJS.onRowMouseDown()" onmousemove="QdbdJS.onRowMouseMove()" onmouseup="QdbdJS.onRowMouseUp(16)">
          <rect x="0" y="113" class="joint-table-row" width="261" height="25" stroke="none"></rect>
          
          
          <text x="0" y="135" class="joint-field-text" id="v-26331" pointer-events="none" fill="#333" font-size="12px">
            <tspan x="14" y="135" text-anchor="start" class="joint-field-name ">
              globalSettings
            </tspan>
            <tspan x="247" y="135" text-anchor="end" class="joint-field-type" fill="#adb1b5">
              GlobalSettings
            </tspan>
          </text>
          
          
        </g>
        <g class="joint-table-row-group" onmousedown="QdbdJS.onRowMouseDown()" onmousemove="QdbdJS.onRowMouseMove()" onmouseup="QdbdJS.onRowMouseUp(undefined)">
          <rect x="0" y="138" class="joint-table-row" width="261" height="31" stroke="none"></rect>
          
          
          <text x="0" y="160" class="joint-field-text" id="v-26332" pointer-events="none" fill="#333" font-size="12px">
            <tspan x="14" y="160" text-anchor="start" class="joint-field-name ">
              ...
            </tspan>
            <tspan x="247" y="160" text-anchor="end" class="joint-field-type" fill="#adb1b5">
              
            </tspan>
          </text>
          
          
        <rect x="0" y="169" class="joint-table-row" width="261" height="6" stroke="none"></rect>
        
        </g>
          </g>
        </g></g><g id="j_2026" model-id="72c0d242-30a7-41df-9628-72ee77531c3c" class="element basic newt joint-theme-default" magnet="false" fill="#ffffff" stroke="none" transform="translate(398,628)" font-family="Roboto,'Helvetica Neue', sans-serif"><g class="joint-table" onmousedown="QdbdJS.onTableMouseDown(this)" onmouseup="QdbdJS.onTableMouseUp(this)" id="v-26370">
          <rect x="0" y="0" width="416" height="38" class="joint-table-title" onmousedown="QdbdJS.onRowMouseDown()" onmousemove="QdbdJS.onRowMouseMove()" onmouseup="QdbdJS.onRowMouseUp(36)" fill="#005aa0" stroke="#005aa0"></rect>
          <text x="14" y="24" text-anchor="start" class="joint-table-title-text" id="v-26383" pointer-events="none" font-size="14px">/lists/&lt;index&gt;/foodList/&lt;index&gt;/</text>
          <g class="joint-table-rows">
            
        <g class="joint-table-row-group" onmousedown="QdbdJS.onRowMouseDown()" onmousemove="QdbdJS.onRowMouseMove()" onmouseup="QdbdJS.onRowMouseUp(38)">
          <rect x="0" y="38" class="joint-table-row" width="416" height="25" stroke="none"></rect>
          
          
          <text x="0" y="60" class="joint-field-text" id="v-26384" pointer-events="none" fill="#333" font-size="12px">
            <tspan x="14" y="60" text-anchor="start" class="joint-field-name pk" fill="#005aa0" font-weight="bold">
              name
            </tspan>
            <tspan x="402" y="60" text-anchor="end" class="joint-field-type" fill="#adb1b5">
              string
            </tspan>
          </text>
          <path class="pk-key" transform="matrix(0.7, 0, 0, 0.7, 338, 47)" d="M7,14A2,2 0 0,1 5,12A2,2 0 0,1 7,10A2,2 0 0,1 9,12A2,2 0 0,1 7,14M12.65,10C11.83,7.67 9.61,6 7,6A6,6 0 0,0 1,12A6,6 0 0,0 7,18C9.61,18 11.83,16.33 12.65,14H17V18H21V14H23V10H12.65Z" fill="rgba(173,177,181,0.7)"></path>
          
        </g>
        <g class="joint-table-row-group" onmousedown="QdbdJS.onRowMouseDown()" onmousemove="QdbdJS.onRowMouseMove()" onmouseup="QdbdJS.onRowMouseUp(39)">
          <rect x="0" y="63" class="joint-table-row" width="416" height="25" stroke="none"></rect>
          
          
          <text x="0" y="85" class="joint-field-text" id="v-26385" pointer-events="none" fill="#333" font-size="12px">
            <tspan x="14" y="85" text-anchor="start" class="joint-field-name ">
              entryDate
            </tspan>
            <tspan x="402" y="85" text-anchor="end" class="joint-field-type" fill="#adb1b5">
              long
            </tspan>
          </text>
          
          
        </g>
        <g class="joint-table-row-group" onmousedown="QdbdJS.onRowMouseDown()" onmousemove="QdbdJS.onRowMouseMove()" onmouseup="QdbdJS.onRowMouseUp(40)">
          <rect x="0" y="88" class="joint-table-row" width="416" height="25" stroke="none"></rect>
          
          
          <text x="0" y="110" class="joint-field-text" id="v-26386" pointer-events="none" fill="#333" font-size="12px">
            <tspan x="14" y="110" text-anchor="start" class="joint-field-name ">
              expDate
            </tspan>
            <tspan x="402" y="110" text-anchor="end" class="joint-field-type" fill="#adb1b5">
              long
            </tspan>
          </text>
          
          
        </g>
        <g class="joint-table-row-group" onmousedown="QdbdJS.onRowMouseDown()" onmousemove="QdbdJS.onRowMouseMove()" onmouseup="QdbdJS.onRowMouseUp(41)">
          <rect x="0" y="113" class="joint-table-row" width="416" height="25" stroke="none"></rect>
          
          
          <text x="0" y="135" class="joint-field-text" id="v-26387" pointer-events="none" fill="#333" font-size="12px">
            <tspan x="14" y="135" text-anchor="start" class="joint-field-name ">
              image
            </tspan>
            <tspan x="402" y="135" text-anchor="end" class="joint-field-type" fill="#adb1b5">
              Uri
            </tspan>
          </text>
          
          
        </g>
        <g class="joint-table-row-group" onmousedown="QdbdJS.onRowMouseDown()" onmousemove="QdbdJS.onRowMouseMove()" onmouseup="QdbdJS.onRowMouseUp(42)">
          <rect x="0" y="138" class="joint-table-row" width="416" height="25" stroke="none"></rect>
          
          
          <text x="0" y="160" class="joint-field-text" id="v-26388" pointer-events="none" fill="#333" font-size="12px">
            <tspan x="14" y="160" text-anchor="start" class="joint-field-name ">
              recentAccessDate
            </tspan>
            <tspan x="402" y="160" text-anchor="end" class="joint-field-type" fill="#adb1b5">
              long
            </tspan>
          </text>
          
          
        </g>
        <g class="joint-table-row-group" onmousedown="QdbdJS.onRowMouseDown()" onmousemove="QdbdJS.onRowMouseMove()" onmouseup="QdbdJS.onRowMouseUp(43)">
          <rect x="0" y="163" class="joint-table-row" width="416" height="31" stroke="none"></rect>
          
          
          <text x="0" y="185" class="joint-field-text" id="v-26389" pointer-events="none" fill="#333" font-size="12px">
            <tspan x="14" y="185" text-anchor="start" class="joint-field-name ">
              status
            </tspan>
            <tspan x="402" y="185" text-anchor="end" class="joint-field-type" fill="#adb1b5">
              int
            </tspan>
          </text>
          
          
        <rect x="0" y="194" class="joint-table-row" width="416" height="6" stroke="none"></rect>
        
        </g>
          </g>
        </g></g><g id="j_2025" model-id="338405c3-a71f-4eda-8d2f-85926cf8e671" class="element basic newt joint-theme-default" magnet="false" fill="#ffffff" stroke="none" transform="translate(126,600)" font-family="Roboto,'Helvetica Neue', sans-serif"><g class="joint-table" onmousedown="QdbdJS.onTableMouseDown(this)" onmouseup="QdbdJS.onTableMouseUp(this)" id="v-26352">
          <rect x="0" y="0" width="195" height="38" class="joint-table-title" onmousedown="QdbdJS.onRowMouseDown()" onmousemove="QdbdJS.onRowMouseMove()" onmouseup="QdbdJS.onRowMouseUp(28)" fill="#005aa0" stroke="#005aa0"></rect>
          <text x="14" y="24" text-anchor="start" class="joint-table-title-text" id="v-26363" pointer-events="none" font-size="14px">/lists/&lt;index&gt;/</text>
          <g class="joint-table-rows">
            
        <g class="joint-table-row-group" onmousedown="QdbdJS.onRowMouseDown()" onmousemove="QdbdJS.onRowMouseMove()" onmouseup="QdbdJS.onRowMouseUp(30)">
          <rect x="0" y="38" class="joint-table-row" width="195" height="25" stroke="none"></rect>
          
          
          <text x="0" y="60" class="joint-field-text" id="v-26364" pointer-events="none" fill="#333" font-size="12px">
            <tspan x="14" y="60" text-anchor="start" class="joint-field-name pk" fill="#005aa0" font-weight="bold">
              id
            </tspan>
            <tspan x="181" y="60" text-anchor="end" class="joint-field-type" fill="#adb1b5">
              int
            </tspan>
          </text>
          <path class="pk-key" transform="matrix(0.7, 0, 0, 0.7, 144, 47)" d="M7,14A2,2 0 0,1 5,12A2,2 0 0,1 7,10A2,2 0 0,1 9,12A2,2 0 0,1 7,14M12.65,10C11.83,7.67 9.61,6 7,6A6,6 0 0,0 1,12A6,6 0 0,0 7,18C9.61,18 11.83,16.33 12.65,14H17V18H21V14H23V10H12.65Z" fill="rgba(173,177,181,0.7)"></path>
          
        </g>
        <g class="joint-table-row-group" onmousedown="QdbdJS.onRowMouseDown()" onmousemove="QdbdJS.onRowMouseMove()" onmouseup="QdbdJS.onRowMouseUp(31)">
          <rect x="0" y="63" class="joint-table-row" width="195" height="25" stroke="none"></rect>
          
          
          <text x="0" y="85" class="joint-field-text" id="v-26365" pointer-events="none" fill="#333" font-size="12px">
            <tspan x="14" y="85" text-anchor="start" class="joint-field-name fk" fill="#222" font-weight="bold">
              foodList
            </tspan>
            <tspan x="181" y="85" text-anchor="end" class="joint-field-type" fill="#adb1b5">
              List
            </tspan>
          </text>
          
          
        </g>
        <g class="joint-table-row-group" onmousedown="QdbdJS.onRowMouseDown()" onmousemove="QdbdJS.onRowMouseMove()" onmouseup="QdbdJS.onRowMouseUp(32)">
          <rect x="0" y="88" class="joint-table-row" width="195" height="25" stroke="none"></rect>
          
          
          <text x="0" y="110" class="joint-field-text" id="v-26366" pointer-events="none" fill="#333" font-size="12px">
            <tspan x="14" y="110" text-anchor="start" class="joint-field-name ">
              name
            </tspan>
            <tspan x="181" y="110" text-anchor="end" class="joint-field-type" fill="#adb1b5">
              string
            </tspan>
          </text>
          
          
        </g>
        <g class="joint-table-row-group" onmousedown="QdbdJS.onRowMouseDown()" onmousemove="QdbdJS.onRowMouseMove()" onmouseup="QdbdJS.onRowMouseUp(33)">
          <rect x="0" y="113" class="joint-table-row" width="195" height="25" stroke="none"></rect>
          
          
          <text x="0" y="135" class="joint-field-text" id="v-26367" pointer-events="none" fill="#333" font-size="12px">
            <tspan x="14" y="135" text-anchor="start" class="joint-field-name fk" fill="#222" font-weight="bold">
              owner
            </tspan>
            <tspan x="181" y="135" text-anchor="end" class="joint-field-type" fill="#adb1b5">
              User
            </tspan>
          </text>
          
          
        </g>
        <g class="joint-table-row-group" onmousedown="QdbdJS.onRowMouseDown()" onmousemove="QdbdJS.onRowMouseMove()" onmouseup="QdbdJS.onRowMouseUp(undefined)">
          <rect x="0" y="138" class="joint-table-row" width="195" height="31" stroke="none"></rect>
          
          
          <text x="0" y="160" class="joint-field-text" id="v-26368" pointer-events="none" fill="#333" font-size="12px">
            <tspan x="14" y="160" text-anchor="start" class="joint-field-name ">
              ...
            </tspan>
            <tspan x="181" y="160" text-anchor="end" class="joint-field-type" fill="#adb1b5">
              
            </tspan>
          </text>
          
          
        <rect x="0" y="169" class="joint-table-row" width="195" height="6" stroke="none"></rect>
        
        </g>
          </g>
        </g></g><g id="j_2024" model-id="f69e8b01-b5d0-44e1-aa5a-a5d674f11df2" class="element basic newt joint-theme-default" magnet="false" fill="#ffffff" stroke="none" transform="translate(700,409)" font-family="Roboto,'Helvetica Neue', sans-serif"><g class="joint-table" onmousedown="QdbdJS.onTableMouseDown(this)" onmouseup="QdbdJS.onTableMouseUp(this)" id="v-26343">
          <rect x="0" y="0" width="390" height="38" class="joint-table-title" onmousedown="QdbdJS.onRowMouseDown()" onmousemove="QdbdJS.onRowMouseMove()" onmouseup="QdbdJS.onRowMouseUp(23)" fill="#005aa0" stroke="#005aa0"></rect>
          <text x="14" y="24" text-anchor="start" class="joint-table-title-text" id="v-26348" pointer-events="none" font-size="14px">/expDates/&lt;index&gt;/exp/&lt;index&gt;/</text>
          <g class="joint-table-rows">
            
        <g class="joint-table-row-group" onmousedown="QdbdJS.onRowMouseDown()" onmousemove="QdbdJS.onRowMouseMove()" onmouseup="QdbdJS.onRowMouseUp(25)">
          <rect x="0" y="38" class="joint-table-row" width="390" height="25" stroke="none"></rect>
          
          
          <text x="0" y="60" class="joint-field-text" id="v-26349" pointer-events="none" fill="#333" font-size="12px">
            <tspan x="14" y="60" text-anchor="start" class="joint-field-name fk" fill="#222" font-weight="bold">
              condition
            </tspan>
            <tspan x="376" y="60" text-anchor="end" class="joint-field-type" fill="#adb1b5">
              string
            </tspan>
          </text>
          
          
        </g>
        <g class="joint-table-row-group" onmousedown="QdbdJS.onRowMouseDown()" onmousemove="QdbdJS.onRowMouseMove()" onmouseup="QdbdJS.onRowMouseUp(26)">
          <rect x="0" y="63" class="joint-table-row" width="390" height="31" stroke="none"></rect>
          
          
          <text x="0" y="85" class="joint-field-text" id="v-26350" pointer-events="none" fill="#333" font-size="12px">
            <tspan x="14" y="85" text-anchor="start" class="joint-field-name ">
              duration
            </tspan>
            <tspan x="376" y="85" text-anchor="end" class="joint-field-type" fill="#adb1b5">
              long
            </tspan>
          </text>
          
          
        <rect x="0" y="94" class="joint-table-row" width="390" height="6" stroke="none"></rect>
        
        </g>
          </g>
        </g></g><g id="j_2023" model-id="019ea04c-25a8-4c63-844a-e747ca3fe8a1" class="element basic newt joint-theme-default" magnet="false" fill="#ffffff" stroke="none" transform="translate(392,412)" font-family="Roboto,'Helvetica Neue', sans-serif"><g class="joint-table" onmousedown="QdbdJS.onTableMouseDown(this)" onmouseup="QdbdJS.onTableMouseUp(this)" id="v-26334">
          <rect x="0" y="0" width="234" height="38" class="joint-table-title" onmousedown="QdbdJS.onRowMouseDown()" onmousemove="QdbdJS.onRowMouseMove()" onmouseup="QdbdJS.onRowMouseUp(18)" fill="#005aa0" stroke="#005aa0"></rect>
          <text x="14" y="24" text-anchor="start" class="joint-table-title-text" id="v-26339" pointer-events="none" font-size="14px">/expDates/&lt;index&gt;/</text>
          <g class="joint-table-rows">
            
        <g class="joint-table-row-group" onmousedown="QdbdJS.onRowMouseDown()" onmousemove="QdbdJS.onRowMouseMove()" onmouseup="QdbdJS.onRowMouseUp(20)">
          <rect x="0" y="38" class="joint-table-row" width="234" height="25" stroke="none"></rect>
          
          
          <text x="0" y="60" class="joint-field-text" id="v-26340" pointer-events="none" fill="#333" font-size="12px">
            <tspan x="14" y="60" text-anchor="start" class="joint-field-name pk" fill="#005aa0" font-weight="bold">
              name
            </tspan>
            <tspan x="220" y="60" text-anchor="end" class="joint-field-type" fill="#adb1b5">
              string
            </tspan>
          </text>
          <path class="pk-key" transform="matrix(0.7, 0, 0, 0.7, 156, 47)" d="M7,14A2,2 0 0,1 5,12A2,2 0 0,1 7,10A2,2 0 0,1 9,12A2,2 0 0,1 7,14M12.65,10C11.83,7.67 9.61,6 7,6A6,6 0 0,0 1,12A6,6 0 0,0 7,18C9.61,18 11.83,16.33 12.65,14H17V18H21V14H23V10H12.65Z" fill="rgba(173,177,181,0.7)"></path>
          
        </g>
        <g class="joint-table-row-group" onmousedown="QdbdJS.onRowMouseDown()" onmousemove="QdbdJS.onRowMouseMove()" onmouseup="QdbdJS.onRowMouseUp(21)">
          <rect x="0" y="63" class="joint-table-row" width="234" height="31" stroke="none"></rect>
          
          
          <text x="0" y="85" class="joint-field-text" id="v-26341" pointer-events="none" fill="#333" font-size="12px">
            <tspan x="14" y="85" text-anchor="start" class="joint-field-name fk" fill="#222" font-weight="bold">
              exp
            </tspan>
            <tspan x="220" y="85" text-anchor="end" class="joint-field-type" fill="#adb1b5">
              List
            </tspan>
          </text>
          
          
        <rect x="0" y="94" class="joint-table-row" width="234" height="6" stroke="none"></rect>
        
        </g>
          </g>
        </g></g><g id="j_2021" model-id="72df01a9-ca29-4315-bb85-a29f7ced6062" class="element basic newt joint-theme-default" magnet="false" fill="#ffffff" stroke="none" transform="translate(120,391)" font-family="Roboto,'Helvetica Neue', sans-serif"><g class="joint-table" onmousedown="QdbdJS.onTableMouseDown(this)" onmouseup="QdbdJS.onTableMouseUp(this)" id="v-26304">
          <rect x="0" y="0" width="117" height="38" class="joint-table-title" onmousedown="QdbdJS.onRowMouseDown()" onmousemove="QdbdJS.onRowMouseMove()" onmouseup="QdbdJS.onRowMouseUp(5)" fill="#005aa0" stroke="#005aa0"></rect>
          <text x="14" y="24" text-anchor="start" class="joint-table-title-text" id="v-26311" pointer-events="none" font-size="14px">/ (Root)</text>
          <g class="joint-table-rows">
            
        <g class="joint-table-row-group" onmousedown="QdbdJS.onRowMouseDown()" onmousemove="QdbdJS.onRowMouseMove()" onmouseup="QdbdJS.onRowMouseUp(7)">
          <rect x="0" y="38" class="joint-table-row" width="117" height="25" stroke="none"></rect>
          
          
          <text x="0" y="60" class="joint-field-text" id="v-26312" pointer-events="none" fill="#333" font-size="12px">
            <tspan x="14" y="60" text-anchor="start" class="joint-field-name fk" fill="#222" font-weight="bold">
              users
            </tspan>
            <tspan x="103" y="60" text-anchor="end" class="joint-field-type" fill="#adb1b5">
              Object
            </tspan>
          </text>
          
          
        </g>
        <g class="joint-table-row-group" onmousedown="QdbdJS.onRowMouseDown()" onmousemove="QdbdJS.onRowMouseMove()" onmouseup="QdbdJS.onRowMouseUp(8)">
          <rect x="0" y="63" class="joint-table-row" width="117" height="25" stroke="none"></rect>
          
          
          <text x="0" y="85" class="joint-field-text" id="v-26313" pointer-events="none" fill="#333" font-size="12px">
            <tspan x="14" y="85" text-anchor="start" class="joint-field-name fk" fill="#222" font-weight="bold">
              expDates
            </tspan>
            <tspan x="103" y="85" text-anchor="end" class="joint-field-type" fill="#adb1b5">
              List
            </tspan>
          </text>
          
          
        </g>
        <g class="joint-table-row-group" onmousedown="QdbdJS.onRowMouseDown()" onmousemove="QdbdJS.onRowMouseMove()" onmouseup="QdbdJS.onRowMouseUp(9)">
          <rect x="0" y="88" class="joint-table-row" width="117" height="31" stroke="none"></rect>
          
          
          <text x="0" y="110" class="joint-field-text" id="v-26314" pointer-events="none" fill="#333" font-size="12px">
            <tspan x="14" y="110" text-anchor="start" class="joint-field-name fk" fill="#222" font-weight="bold">
              lists
            </tspan>
            <tspan x="103" y="110" text-anchor="end" class="joint-field-type" fill="#adb1b5">
              List
            </tspan>
          </text>
          
          
        <rect x="0" y="119" class="joint-table-row" width="117" height="6" stroke="none"></rect>
        
        </g>
          </g>
        </g></g></g><defs id="v-4"></defs></svg>